<svg xmlns="http://www.w3.org/2000/svg" viewBox="-0.5 -0.5 24 24" height="24" width="24" id="Receipt-Long--Streamline-Outlined----Material-Symbols">
  <path fill="#13d0ff" d="M5.318797916666667 21.083333333333336C4.62001 21.083333333333336 4.026082916666667 20.83871875 3.5370166666666667 20.349489583333334C3.0477875 19.86040416666667 2.803172916666667 19.266477083333335 2.803172916666667 18.567708333333336V15.572916666666668H5.845881250000001V1.9166666666666667L7.278589583333333 3.354166666666667L8.711297916666666 1.9166666666666667L10.14400625 3.354166666666667L11.576714583333334 1.9166666666666667L13.009422916666667 3.354166666666667L14.446922916666667 1.9166666666666667L15.884422916666669 3.354166666666667L17.32192291666667 1.9166666666666667L18.75942291666667 3.354166666666667L20.19692291666667 1.9166666666666667V18.567708333333336C20.19692291666667 19.266477083333335 19.952404166666668 19.86040416666667 19.463318750000003 20.349489583333334C18.974089583333335 20.83871875 18.380066666666668 21.083333333333336 17.68129791666667 21.083333333333336H5.318797916666667ZM17.68129791666667 19.645833333333336C18.000758333333334 19.645833333333336 18.260275000000004 19.54602291666667 18.45994375 19.346354166666668C18.6596125 19.146685416666667 18.75942291666667 18.88716875 18.75942291666667 18.567708333333336V4.3125H7.283381250000001V15.572916666666668H16.60317291666667V18.567708333333336C16.60317291666667 18.88716875 16.702983333333336 19.146685416666667 16.902652083333336 19.346354166666668C17.102320833333334 19.54602291666667 17.361837500000004 19.645833333333336 17.68129791666667 19.645833333333336ZM8.553172916666668 8.097916666666666V6.660416666666667H14.303172916666668V8.097916666666666H8.553172916666668ZM8.553172916666668 11.308333333333334V9.870833333333334H14.303172916666668V11.308333333333334H8.553172916666668ZM16.53129791666667 8.097916666666666C16.33963125 8.097916666666666 16.17192291666667 8.026041666666668 16.028172916666666 7.882291666666666C15.884422916666669 7.738541666666666 15.812547916666668 7.570833333333334 15.812547916666668 7.379166666666667C15.812547916666668 7.1875 15.884422916666669 7.019791666666667 16.028172916666666 6.876041666666667C16.17192291666667 6.732291666666668 16.33963125 6.660416666666667 16.53129791666667 6.660416666666667C16.722964583333336 6.660416666666667 16.89067291666667 6.732291666666668 17.034422916666667 6.876041666666667C17.178172916666668 7.019791666666667 17.25004791666667 7.1875 17.25004791666667 7.379166666666667C17.25004791666667 7.570833333333334 17.178172916666668 7.738541666666666 17.034422916666667 7.882291666666666C16.89067291666667 8.026041666666668 16.722964583333336 8.097916666666666 16.53129791666667 8.097916666666666ZM16.53129791666667 11.188541666666667C16.33963125 11.188541666666667 16.17192291666667 11.116666666666667 16.028172916666666 10.972916666666666C15.884422916666669 10.829166666666667 15.812547916666668 10.661458333333334 15.812547916666668 10.469791666666667C15.812547916666668 10.278125 15.884422916666669 10.110416666666667 16.028172916666666 9.966666666666667C16.17192291666667 9.822916666666668 16.33963125 9.751041666666667 16.53129791666667 9.751041666666667C16.722964583333336 9.751041666666667 16.89067291666667 9.822916666666668 17.034422916666667 9.966666666666667C17.178172916666668 10.110416666666667 17.25004791666667 10.278125 17.25004791666667 10.469791666666667C17.25004791666667 10.661458333333334 17.178172916666668 10.829166666666667 17.034422916666667 10.972916666666666C16.89067291666667 11.116666666666667 16.722964583333336 11.188541666666667 16.53129791666667 11.188541666666667ZM5.294839583333334 19.645833333333336H15.165672916666667V17.010416666666668H4.240672916666666V18.567708333333336C4.240672916666666 18.88716875 4.341695625000001 19.146685416666667 4.543745833333333 19.346354166666668C4.745791250000001 19.54602291666667 4.996175 19.645833333333336 5.294839583333334 19.645833333333336Z" stroke-width="1"></path>
</svg>